

Genre: Action
Language:English

IMDb:http://www.imdb.com/title/tt1621429/

Source:BluRay.1080p


Format : MPEG-4
Format profile : Base Media
Codec ID : isom
File size : 2.15 GiB
Duration : 1h 28mn
Overall bit rate : 3 468 Kbps


Video
Format settings, CABAC : Yes
Format settings, ReFrames : 3 frames
Codec ID : avc1
Codec ID/Info : Advanced Video Coding
Duration : 1h 28mn
Bit rate mode : Variable
Bit rate : 3 099 Kbps
Maximum bit rate : 23.9 Mbps
Width : 1 280 pixels
Height : 720 pixels
Display aspect ratio : 16:9
Frame rate mode : Constant
Frame rate : 23.976 fps
Color space : YUV
Chroma subsampling : 4:2:0
Bit depth : 8 bits
Scan type : Progressive
Bits/(Pixel*Frame) : 0.140
Stream size : 1.87 GiB (87%)
Writing library : x264


Audio
ID : 2
Format : AAC
Format/Info : Advanced Audio Codec
Format version : Version 4
Format profile : LC
Format settings, SBR : No
Codec ID : 40
Duration : 1h 28mn
Bit rate mode : Variable
Bit rate : 444 Kbps
Maximum bit rate : 581 Kbps
Channel(s) : 6 channels
Channel positions : Front: L C R, Side: L R, LFE
Sampling rate : 48.0 KHz
Stream size : 282 MiB (13%)
 
http://shareimage.org/images/ke3xv94rnkgw7ksu4gb6.png
 
http://shareimage.org/images/rqz58ir9eemrzg8jub3x.png
 
http://shareimage.org/images/u698ztllynk8a8co569c.png
 
http://shareimage.org/images/q78kjbbhn9spfjmqyh3o.png
 
http://shareimage.org/images/nrcnltnwxdif2l87bon.png